<svg width="12" height="12" viewBox="0 0 12 12" fill="none" xmlns="http://www.w3.org/2000/svg">
<path d="M5.83489 0C5.83489 0 6.15683 3.00493 7.41084 4.25894C8.66485 5.51295 11.6698 5.83489 11.6698 5.83489C11.6698 5.83489 8.66485 6.15683 7.41084 7.41084C6.15683 8.66485 5.83489 11.6698 5.83489 11.6698C5.83489 11.6698 5.51295 8.66485 4.25894 7.41084C3.00493 6.15683 0 5.83489 0 5.83489C0 5.83489 3.00493 5.51295 4.25894 4.25894C5.51295 3.00493 5.83489 0 5.83489 0Z" fill="#D9D9D9"/>
<path d="M5.83489 0C5.83489 0 6.15683 3.00493 7.41084 4.25894C8.66485 5.51295 11.6698 5.83489 11.6698 5.83489C11.6698 5.83489 8.66485 6.15683 7.41084 7.41084C6.15683 8.66485 5.83489 11.6698 5.83489 11.6698C5.83489 11.6698 5.51295 8.66485 4.25894 7.41084C3.00493 6.15683 0 5.83489 0 5.83489C0 5.83489 3.00493 5.51295 4.25894 4.25894C5.51295 3.00493 5.83489 0 5.83489 0Z" fill="url(#paint0_linear_1763_75221)"/>
<defs>
<linearGradient id="paint0_linear_1763_75221" x1="0.789427" y1="0.921298" x2="12.3268" y2="1.93416" gradientUnits="userSpaceOnUse">
<stop offset="0.0695937" stop-color="#4467FF"/>
<stop offset="0.816425" stop-color="#7241FF"/>
</linearGradient>
</defs>
</svg>
