<svg width="10" height="10" viewBox="0 0 10 10" fill="none" xmlns="http://www.w3.org/2000/svg">
<path d="M4.82991 0C4.82991 0 5.08758 2.40502 6.09124 3.40868C7.09489 4.41233 9.49991 4.67 9.49991 4.67C9.49991 4.67 7.09489 4.92767 6.09124 5.93132C5.08758 6.93498 4.82991 9.34 4.82991 9.34C4.82991 9.34 4.57224 6.93498 3.56859 5.93132C2.56493 4.92767 0.159912 4.67 0.159912 4.67C0.159912 4.67 2.56493 4.41233 3.56859 3.40868C4.57224 2.40502 4.82991 0 4.82991 0Z" fill="#D9D9D9"/>
<path d="M4.82991 0C4.82991 0 5.08758 2.40502 6.09124 3.40868C7.09489 4.41233 9.49991 4.67 9.49991 4.67C9.49991 4.67 7.09489 4.92767 6.09124 5.93132C5.08758 6.93498 4.82991 9.34 4.82991 9.34C4.82991 9.34 4.57224 6.93498 3.56859 5.93132C2.56493 4.92767 0.159912 4.67 0.159912 4.67C0.159912 4.67 2.56493 4.41233 3.56859 3.40868C4.57224 2.40502 4.82991 0 4.82991 0Z" fill="url(#paint0_linear_1763_75220)"/>
<defs>
<linearGradient id="paint0_linear_1763_75220" x1="0.791736" y1="0.737368" x2="10.0257" y2="1.54802" gradientUnits="userSpaceOnUse">
<stop offset="0.0695937" stop-color="#4467FF"/>
<stop offset="0.816425" stop-color="#7241FF"/>
</linearGradient>
</defs>
</svg>
