<svg width="15" height="14" viewBox="0 0 15 14" fill="none" xmlns="http://www.w3.org/2000/svg">
<path d="M7.32996 0C7.32996 0 7.71618 3.60496 9.22059 5.10936C10.725 6.61377 14.33 7 14.33 7C14.33 7 10.725 7.38623 9.22059 8.89064C7.71618 10.395 7.32996 14 7.32996 14C7.32996 14 6.94373 10.395 5.43932 8.89064C3.93491 7.38623 0.329956 7 0.329956 7C0.329956 7 3.93491 6.61377 5.43932 5.10936C6.94373 3.60496 7.32996 0 7.32996 0Z" fill="#D9D9D9"/>
<path d="M7.32996 0C7.32996 0 7.71618 3.60496 9.22059 5.10936C10.725 6.61377 14.33 7 14.33 7C14.33 7 10.725 7.38623 9.22059 8.89064C7.71618 10.395 7.32996 14 7.32996 14C7.32996 14 6.94373 10.395 5.43932 8.89064C3.93491 7.38623 0.329956 7 0.329956 7C0.329956 7 3.93491 6.61377 5.43932 5.10936C6.94373 3.60496 7.32996 0 7.32996 0Z" fill="url(#paint0_linear_1763_75219)"/>
<defs>
<linearGradient id="paint0_linear_1763_75219" x1="1.27701" y1="1.10526" x2="15.1181" y2="2.32037" gradientUnits="userSpaceOnUse">
<stop offset="0.0695937" stop-color="#4467FF"/>
<stop offset="0.816425" stop-color="#7241FF"/>
</linearGradient>
</defs>
</svg>
