<svg width="66" height="42" viewBox="0 0 66 42" fill="none" xmlns="http://www.w3.org/2000/svg">
<g id="Icon">
<path id="Rectangle 2" d="M0 20.94C0 9.75211 9.06956 0.682556 20.2574 0.682556H45.7426C56.9304 0.682556 66 9.75211 66 20.94C66 32.1278 56.9304 41.1974 45.7426 41.1974H20.2574C16.4062 41.1974 12.806 40.1227 9.74029 38.2568C8.59174 37.5578 1.63704 42.1036 0.653465 41.1974C-0.174975 40.4341 4.94158 34.2466 4.24966 33.3558C1.58599 29.9265 0 25.6185 0 20.94Z" fill="url(#paint0_linear_1560_34077)"/>
<g id="Group 1">
<path id="Polygon 1" d="M46.9597 15.5554C47.1046 15.1925 47.6726 15.184 47.825 15.5437C48.2911 16.6443 49.0679 18.2644 49.9038 19.1003C50.7011 19.8976 52.0842 20.5133 53.0735 20.8812C53.44 21.0175 53.4675 21.5902 53.1136 21.7566C52.1314 22.2185 50.7358 22.9629 49.9038 23.7949C49.0247 24.674 48.2434 26.1823 47.7898 27.1673C47.6347 27.5041 47.1171 27.5041 46.962 27.1673C46.5084 26.1823 45.7271 24.674 44.848 23.7949C44.0073 22.9542 42.5911 22.203 41.6075 21.7422C41.2566 21.5778 41.2794 21.0165 41.6415 20.8784C42.6251 20.5035 44.0209 19.8788 44.848 19.1003C45.784 18.2194 46.5276 16.6374 46.9597 15.5554Z" fill="white" fill-opacity="0.6"/>
<circle id="Ellipse 1" cx="29.0002" cy="21.6826" r="4" fill="white" fill-opacity="0.6"/>
<circle id="Ellipse 2" cx="16.0002" cy="21.6826" r="4" fill="white" fill-opacity="0.6"/>
</g>
</g>
<defs>
<linearGradient id="paint0_linear_1560_34077" x1="4.46471" y1="3.89057" x2="68.9083" y2="13.0796" gradientUnits="userSpaceOnUse">
<stop offset="0.0695937" stop-color="#4467FF"/>
<stop offset="0.816425" stop-color="#7241FF"/>
</linearGradient>
</defs>
</svg>
